<?xml version="1.0" encoding="UTF-8"?>
<svg version="1.1" xmlns="http://www.w3.org/2000/svg" width="335" height="302">
<path d="M0 0 C1.42678891 0.28273982 2.85387686 0.5639745 4.28125 0.84375 C34.47466083 7.05408316 62.67213395 23.17823688 80.875 48.375 C96.0672042 71.5735241 103.17945633 97.42132794 103.35009766 124.9453125 C103.36654809 126.88065711 103.39369107 128.81594377 103.43212891 130.75097656 C103.68363951 143.51896708 102.72982498 154.05775853 98 166 C97.33871094 167.70530884 97.33871094 167.70530884 96.6640625 169.44506836 C89.20856693 188.21046315 77.76342814 206.99645419 63 221 C62.34 221 61.68 221 61 221 C60.74992187 221.58394531 60.49984375 222.16789063 60.2421875 222.76953125 C55.32778158 231.59382615 43.27512694 238.4832487 35 244 C34.01 244 33.02 244 32 244 C32 244.66 32 245.32 32 246 C28.19917135 248.64373631 24.05670294 250.77319483 20 253 C19.33629395 253.36609375 18.67258789 253.7321875 17.98876953 254.109375 C8.54385471 259.29220822 -0.96094652 264.05292721 -11 268 C-11.90975586 268.36472412 -11.90975586 268.36472412 -12.83789062 268.73681641 C-42.40611172 280.45295757 -76.52450072 285.42385904 -108.1875 282.1875 C-109.08259277 282.09694336 -109.97768555 282.00638672 -110.89990234 281.91308594 C-130.46035652 279.84389231 -149.34294097 276.05354451 -167 267 C-168.05574219 266.47664063 -169.11148438 265.95328125 -170.19921875 265.4140625 C-177.5245885 261.65353587 -183.7675047 257.35950394 -190 252 C-190.62390625 251.50886719 -191.2478125 251.01773438 -191.890625 250.51171875 C-199.63055849 244.32325842 -204.93744115 236.64424339 -209.375 227.875 C-209.70878662 227.21838379 -210.04257324 226.56176758 -210.38647461 225.88525391 C-215.37446055 215.61172154 -215.31549756 206.08019312 -215.12695312 194.82226562 C-215.06839491 188.45020189 -215.06839491 188.45020189 -217.51733398 182.75585938 C-219.26916099 181.04461258 -221.08893528 179.52780853 -223 178 C-224.63671875 175.6640625 -224.63671875 175.6640625 -225.6875 173.625 C-226.04199219 172.95726562 -226.39648438 172.28953125 -226.76171875 171.6015625 C-227.37466797 170.31378906 -227.37466797 170.31378906 -228 169 C-228.48251472 168.06129311 -228.48251472 168.06129311 -228.97477722 167.10362244 C-231.70555783 161.49882602 -232.61568424 156.9140135 -232.6015625 150.71484375 C-232.61013275 149.85548721 -232.618703 148.99613068 -232.62753296 148.11073303 C-232.63894575 146.30147801 -232.64007482 144.4921313 -232.63134766 142.68286133 C-232.62506877 139.9672448 -232.67187036 137.25608836 -232.72265625 134.54101562 C-232.9278627 106.09070037 -215.9855623 82.03756183 -197 62 C-180.10754438 45.00418538 -161.13577394 31.22541805 -140 20 C-139.05125 19.49597656 -138.1025 18.99195312 -137.125 18.47265625 C-117.92015068 8.6001634 -97.14979076 3.67269813 -76 0 C-75.07268066 -0.16661133 -74.14536133 -0.33322266 -73.18994141 -0.50488281 C-49.47816253 -4.64469456 -23.55998043 -5.22554059 0 0 Z " fill="#8B522A" transform="translate(232,14)"/>
<path d="M0 0 C3.16334313 0.02375691 6.32584685 0.02051256 9.48925781 0.01391602 C24.40642395 0.03290752 38.13577066 1.30441146 52.59082031 5.21118164 C53.53248047 5.45481445 54.47414062 5.69844727 55.44433594 5.94946289 C69.71696993 9.73068233 69.71696993 9.73068233 74.90332031 12.33618164 C75.23332031 13.32618164 75.56332031 14.31618164 75.90332031 15.33618164 C77.87915746 16.07137686 79.88509629 16.72690646 81.90332031 17.33618164 C83.91802129 18.30622285 85.92254078 19.29863046 87.90332031 20.33618164 C87.90332031 20.99618164 87.90332031 21.65618164 87.90332031 22.33618164 C88.58394531 22.52180664 89.26457031 22.70743164 89.96582031 22.89868164 C93.41438998 24.58627956 95.46213831 26.70340657 98.05957031 29.48461914 C99.93135249 31.43971786 99.93135249 31.43971786 102.38378906 33.28149414 C111.70848054 40.88581618 120.64744747 53.73713465 123.90332031 65.33618164 C123.94156944 67.00240935 123.94904352 68.67014228 123.90332031 70.33618164 C123.2884375 69.9146582 122.67355469 69.49313477 122.04003906 69.05883789 C121.23179687 68.51098633 120.42355469 67.96313477 119.59082031 67.39868164 C118.7903125 66.8534082 117.98980469 66.30813477 117.16503906 65.74633789 C114.87750601 64.19780838 114.87750601 64.19780838 111.90332031 63.33618164 C111.90332031 62.67618164 111.90332031 62.01618164 111.90332031 61.33618164 C110.93394531 61.06805664 109.96457031 60.79993164 108.96582031 60.52368164 C103.34929941 58.91247766 97.80031497 57.24954944 92.52832031 54.71118164 C84.37987405 51.62039168 75.06162528 52.16180948 66.43847656 52.19165039 C65.3650148 52.19400192 64.29155304 52.19635345 63.18556213 52.19877625 C51.71899751 52.27234724 40.28396724 52.80691479 28.8371582 53.453125 C25.33953644 53.64875345 21.84132704 53.82801221 18.34277344 54.00610352 C-16.48539627 55.86553585 -54.01953164 59.6768991 -81.64746094 83.53930664 C-84.09667969 85.33618164 -84.09667969 85.33618164 -88.09667969 85.33618164 C-88.09667969 85.99618164 -88.09667969 86.65618164 -88.09667969 87.33618164 C-89.83975863 88.8723064 -91.64217064 90.34158523 -93.47167969 91.77368164 C-96.59470873 94.22287883 -98.8894177 96.02528865 -101.09667969 99.33618164 C-102.75516146 100.34969828 -104.4233393 101.34738959 -106.09667969 102.33618164 C-106.96292969 103.09930664 -107.82917969 103.86243164 -108.72167969 104.64868164 C-112.23718914 107.66713962 -116.22176382 109.64221421 -120.29589844 111.80883789 C-127.38873536 115.67675872 -133.37204175 120.26218401 -139.24902344 125.79711914 C-141.09667969 127.33618164 -141.09667969 127.33618164 -143.09667969 127.33618164 C-143.09667969 127.99618164 -143.09667969 128.65618164 -143.09667969 129.33618164 C-144.23298688 130.50692239 -145.37588462 131.67178221 -146.54589844 132.80883789 C-154.7144567 140.85394187 -160.05286525 150.09663065 -165.09667969 160.33618164 C-172.58098665 153.68346434 -176.37814611 144.35371727 -177.26953125 134.4074707 C-177.85173592 124.06966843 -177.99650144 111.18591426 -172.09667969 102.33618164 C-171.67322266 101.00780273 -171.67322266 101.00780273 -171.24121094 99.65258789 C-169.83566076 95.57985035 -167.89802335 92.01570901 -165.78417969 88.27368164 C-165.40583984 87.57952148 -165.0275 86.88536133 -164.63769531 86.17016602 C-162.23232211 81.8844503 -159.59983471 78.81705905 -156.09667969 75.33618164 C-155.56429687 74.3165332 -155.03191406 73.29688477 -154.48339844 72.24633789 C-151.53906208 66.79850471 -146.82892253 62.62353423 -142.46264648 58.31103516 C-140.91974803 56.78414036 -139.39345009 55.24197559 -137.86816406 53.69750977 C-130.32305386 46.13681192 -122.36980959 40.56285486 -113.09667969 35.33618164 C-111.78099468 34.50788602 -110.4686151 33.6743222 -109.15917969 32.83618164 C-105.95414409 30.80673825 -102.70045111 29.09457213 -99.24902344 27.52368164 C-97.29477704 26.44547673 -95.60645118 25.27652713 -93.81152344 23.95727539 C-77.94515638 12.45832022 -58.0992773 6.89151703 -39.09667969 3.33618164 C-37.86836426 3.08247803 -36.64004883 2.82877441 -35.37451172 2.56738281 C-23.56377541 0.25209722 -12.01313489 -0.09633704 0 0 Z " fill="#8B522A" transform="translate(189.0966796875,25.663818359375)"/>
<path d="M0 0 C1.42678891 0.28273982 2.85387686 0.5639745 4.28125 0.84375 C34.47466083 7.05408316 62.67213395 23.17823688 80.875 48.375 C96.0672042 71.5735241 103.17945633 97.42132794 103.35009766 124.9453125 C103.36654809 126.88065711 103.39369107 128.81594377 103.43212891 130.75097656 C103.68363951 143.51896708 102.72982498 154.05775853 98 166 C97.33871094 167.70530884 97.33871094 167.70530884 96.6640625 169.44506836 C89.20856693 188.21046315 77.76342814 206.99645419 63 221 C62.34 221 61.68 221 61 221 C60.74992187 221.58394531 60.49984375 222.16789063 60.2421875 222.76953125 C55.32778158 231.59382615 43.27512694 238.4832487 35 244 C34.01 244 33.02 244 32 244 C32 244.66 32 245.32 32 246 C28.19917135 248.64373631 24.05670294 250.77319483 20 253 C19.33629395 253.36609375 18.67258789 253.7321875 17.98876953 254.109375 C8.54385471 259.29220822 -0.96094652 264.05292721 -11 268 C-11.90975586 268.36472412 -11.90975586 268.36472412 -12.83789062 268.73681641 C-42.40611172 280.45295757 -76.52450072 285.42385904 -108.1875 282.1875 C-109.08259277 282.09694336 -109.97768555 282.00638672 -110.89990234 281.91308594 C-130.46035652 279.84389231 -149.34294097 276.05354451 -167 267 C-168.05574219 266.47664063 -169.11148438 265.95328125 -170.19921875 265.4140625 C-177.5245885 261.65353587 -183.7675047 257.35950394 -190 252 C-190.62390625 251.50886719 -191.2478125 251.01773438 -191.890625 250.51171875 C-199.63055849 244.32325842 -204.93744115 236.64424339 -209.375 227.875 C-209.70878662 227.21838379 -210.04257324 226.56176758 -210.38647461 225.88525391 C-215.37446055 215.61172154 -215.31549756 206.08019312 -215.12695312 194.82226562 C-215.06839491 188.45020189 -215.06839491 188.45020189 -217.51733398 182.75585938 C-219.26916099 181.04461258 -221.08893528 179.52780853 -223 178 C-224.63671875 175.6640625 -224.63671875 175.6640625 -225.6875 173.625 C-226.04199219 172.95726562 -226.39648438 172.28953125 -226.76171875 171.6015625 C-227.37466797 170.31378906 -227.37466797 170.31378906 -228 169 C-228.48251472 168.06129311 -228.48251472 168.06129311 -228.97477722 167.10362244 C-231.70555783 161.49882602 -232.61568424 156.9140135 -232.6015625 150.71484375 C-232.61013275 149.85548721 -232.618703 148.99613068 -232.62753296 148.11073303 C-232.63894575 146.30147801 -232.64007482 144.4921313 -232.63134766 142.68286133 C-232.62506877 139.9672448 -232.67187036 137.25608836 -232.72265625 134.54101562 C-232.9278627 106.09070037 -215.9855623 82.03756183 -197 62 C-180.10754438 45.00418538 -161.13577394 31.22541805 -140 20 C-139.05125 19.49597656 -138.1025 18.99195312 -137.125 18.47265625 C-117.92015068 8.6001634 -97.14979076 3.67269813 -76 0 C-75.07268066 -0.16661133 -74.14536133 -0.33322266 -73.18994141 -0.50488281 C-49.47816253 -4.64469456 -23.55998043 -5.22554059 0 0 Z M-137.02734375 36.02734375 C-141.03003686 38.683533 -145.24738141 40.81820467 -149.52148438 43 C-153.381122 45.01030973 -156.62268124 47.22577388 -160 50 C-161.37711568 50.76392874 -162.77315536 51.49492223 -164.1875 52.1875 C-169.89846789 55.31871808 -174.34908891 59.49591563 -179 64 C-179.67256836 64.64146973 -180.34513672 65.28293945 -181.03808594 65.94384766 C-183.33048794 68.13660178 -185.6046479 70.34693625 -187.875 72.5625 C-188.61298828 73.27051758 -189.35097656 73.97853516 -190.11132812 74.70800781 C-194.0786176 78.63347893 -196.81998896 82.11401784 -199.08129883 87.21240234 C-200.50573496 89.98405298 -202.77731628 91.84560149 -205 94 C-206.71114996 96.39422719 -208.20176663 98.89884486 -209.6875 101.4375 C-210.07744141 102.08009766 -210.46738281 102.72269531 -210.86914062 103.38476562 C-213.11487646 107.16604733 -214.74736771 110.75759442 -216 115 C-216.26941406 115.76183594 -216.53882813 116.52367187 -216.81640625 117.30859375 C-217.06261719 118.01113281 -217.30882812 118.71367187 -217.5625 119.4375 C-217.81128906 120.13746094 -218.06007812 120.83742188 -218.31640625 121.55859375 C-222.30855271 135.81625968 -220.6700922 150.53552754 -215 164 C-213.48670699 166.22211828 -213.48670699 166.22211828 -212 168 C-211.28837557 169.64797236 -210.60968047 171.31165408 -210 173 C-209.01 173 -208.02 173 -207 173 C-206.773125 173.598125 -206.54625 174.19625 -206.3125 174.8125 C-205.13456273 177.23271978 -205.13456273 177.23271978 -202.375 178.25 C-201.59125 178.8275 -200.8075 179.405 -200 180 C-199.63490597 183.77263835 -199.71470174 186.67081972 -200.50390625 190.34765625 C-202.21016346 199.47008652 -201.22898129 207.78057663 -197.9375 216.375 C-197 219 -197 219 -196.5625 222.9375 C-195.8033904 227.07043002 -194.12192078 228.21019845 -191 231 C-189.5664069 232.54698465 -188.15074898 234.11071435 -186.75 235.6875 C-185.72132813 236.83798828 -185.72132813 236.83798828 -184.671875 238.01171875 C-183 240 -183 240 -182 242 C-181.278125 242.433125 -180.55625 242.86625 -179.8125 243.3125 C-177 245 -177 245 -174.3125 247.375 C-167.23670028 253.4011926 -155.39498705 259.44896398 -146 259 C-146 259.66 -146 260.32 -146 261 C-138.85826847 263.44681932 -131.80206359 265.37841626 -124.375 266.6875 C-123.70799072 266.80649658 -123.04098145 266.92549316 -122.35375977 267.0480957 C-89.19988125 272.61185003 -47.8116469 271.11926516 -17.74853516 254.86499023 C-14.97327228 253.49208373 -11.97162126 252.8471437 -9 252 C-6.23228035 250.77906853 -3.55632798 249.39895373 -0.875 248 C3.36069248 245.81485771 7.52689018 243.67088927 12 242 C12 241.34 12 240.68 12 240 C13.175625 239.7834375 13.175625 239.7834375 14.375 239.5625 C16.96421018 239.12201075 16.96421018 239.12201075 19 238 C19 237.34 19 236.68 19 236 C19.7115625 235.7525 20.423125 235.505 21.15625 235.25 C24.32849867 233.85560498 26.74913699 232.10178297 29.5 230 C32.94577182 227.36727546 35.97427311 225.56443658 40 224 C42.81331378 221.60416349 42.81331378 221.60416349 45 219 C45 218.34 45 217.68 45 217 C45.56203125 216.75121094 46.1240625 216.50242188 46.703125 216.24609375 C54.54003683 211.9944358 60.2487525 204.79968786 65.2109375 197.578125 C67 195 67 195 69.0859375 192.44140625 C70.82696466 190.22070835 72.04297381 188.22315577 73.25 185.6875 C74.75154733 182.55464198 76.28036641 179.45199033 77.921875 176.390625 C92.25431734 149.33937153 93.93086757 117.7822135 85.1875 88.5 C78.30398234 66.66241894 66.12082571 47.20716827 47 34 C46.34 34 45.68 34 45 34 C44.67 33.01 44.34 32.02 44 31 C40.9069406 29.48265011 38.00380245 28.21132683 34.625 27.5 C33.820625 27.2525 33.820625 27.2525 33 27 C32.67 26.01 32.34 25.02 32 24 C24.47091975 20.14342065 15.58691344 18.40806346 7.4375 16.3125 C5.7059668 15.85133789 5.7059668 15.85133789 3.93945312 15.38085938 C2.80314453 15.08630859 1.66683594 14.79175781 0.49609375 14.48828125 C-0.51267822 14.22571533 -1.5214502 13.96314941 -2.56079102 13.69262695 C-10.53412593 12.08686624 -18.55549132 11.82642168 -26.66796875 11.76171875 C-27.66468094 11.753647 -28.66139313 11.74557526 -29.68830872 11.73725891 C-31.79178173 11.72350791 -33.89527622 11.71274614 -35.9987793 11.70483398 C-38.10138731 11.69340414 -40.20396842 11.67309837 -42.30639648 11.64331055 C-74.99453101 11.18218862 -109.45450482 17.56243613 -137.02734375 36.02734375 Z " fill="#090504" transform="translate(232,14)"/>
<path d="M0 0 C0.33 0 0.66 0 1 0 C1.41587435 22.97225903 1.41587435 22.97225903 -1 32 C-1.30679687 33.26585937 -1.61359375 34.53171875 -1.9296875 35.8359375 C-4.74601165 46.80057246 -9.36563297 56.22748597 -15 66 C-15.80824219 67.4540625 -15.80824219 67.4540625 -16.6328125 68.9375 C-20.16783817 75.11896566 -24.4593625 80.53101353 -29 86 C-29.65613281 86.84433594 -30.31226563 87.68867188 -30.98828125 88.55859375 C-32.88508105 90.86053525 -34.81655072 92.79399023 -37.0625 94.75 C-38.06990234 95.63945312 -38.06990234 95.63945312 -39.09765625 96.546875 C-41 98 -41 98 -44 99 C-44.33 99.99 -44.66 100.98 -45 102 C-49.08126871 106.64811159 -49.08126871 106.64811159 -52.25390625 107.86328125 C-55.7494661 109.31023419 -58.64361445 111.41878624 -61.6875 113.625 C-67.73332055 118 -67.73332055 118 -70 118 C-70 118.66 -70 119.32 -70 120 C-72.64738916 121.4606285 -73.89448334 122 -77 122 C-77 122.66 -77 123.32 -77 124 C-77.969375 124.391875 -78.93875 124.78375 -79.9375 125.1875 C-82.90653701 126.45308951 -85.69376314 127.9067506 -88.5 129.5 C-94.27531829 132.75837215 -100.18991954 135.14593261 -106.49609375 137.15625 C-108.54229855 137.84576675 -110.56618947 138.60119814 -112.58203125 139.375 C-148.52338491 152.91412171 -198.51229305 159.05745846 -235 143 C-235 142.34 -235 141.68 -235 141 C-235.71800781 141.04511719 -236.43601563 141.09023438 -237.17578125 141.13671875 C-240.37214735 140.98198457 -242.31232708 140.19275288 -245.1875 138.8125 C-246.14527344 138.35359375 -247.10304687 137.8946875 -248.08984375 137.421875 C-249.05019531 136.95265625 -250.01054687 136.4834375 -251 136 C-251.88816406 135.59265625 -252.77632812 135.1853125 -253.69140625 134.765625 C-258.60329796 132.45591104 -262.59045506 129.98747773 -266.52734375 126.234375 C-268.10009495 124.76271053 -268.10009495 124.76271053 -271 124 C-272.46484375 122.328125 -272.46484375 122.328125 -273.9375 120.25 C-274.45957031 119.52941406 -274.98164063 118.80882812 -275.51953125 118.06640625 C-276.00808594 117.38449219 -276.49664062 116.70257813 -277 116 C-279.43959402 112.77112556 -281.64483471 110.27671931 -285 108 C-284.67 106.68 -284.34 105.36 -284 104 C-283.484375 104.721875 -282.96875 105.44375 -282.4375 106.1875 C-277.53978036 111.83871497 -272.64321161 114.44593691 -265.4296875 116.32421875 C-263 117 -263 117 -260.703125 117.98046875 C-233.6922727 128.1680879 -196.67429062 122.72433928 -169.27246094 116.50024414 C-166.79961204 115.95588795 -164.31839691 115.47468886 -161.83203125 114.99609375 C-158.00654384 114.2383153 -154.33605062 113.27516615 -150.625 112.0625 C-146.39818676 110.71805588 -142.19070484 109.5230233 -137.875 108.5 C-133.08177839 107.33306385 -128.52798226 105.84719962 -123.91796875 104.09765625 C-120.61223738 102.85413481 -117.27635106 101.71395242 -113.9375 100.5625 C-108.0266224 98.45840885 -102.53345041 95.93727676 -97 93 C-95.00110558 91.99779189 -93.00098474 90.9980281 -91 90 C-89.80683987 89.39281407 -88.61414675 88.78470974 -87.421875 88.17578125 C-86.19793239 87.55465653 -84.97397392 86.93356304 -83.75 86.3125 C-83.12609375 85.99216797 -82.5021875 85.67183594 -81.859375 85.34179688 C-77.22571295 83 -77.22571295 83 -75 83 C-75 82.34 -75 81.68 -75 81 C-72.89894387 79.67366958 -70.79462584 78.45513715 -68.625 77.25 C-53.70149633 68.60714146 -36.61739298 56.63060166 -26.24609375 42.6328125 C-25.83488281 42.09398437 -25.42367188 41.55515625 -25 41 C-24.34 41 -23.68 41 -23 41 C-22.71125 40.401875 -22.4225 39.80375 -22.125 39.1875 C-21 37 -21 37 -19 34 C-15.7 34.33 -12.4 34.66 -9 35 C-8.67 33.68 -8.34 32.36 -8 31 C-6.84902078 29.48792926 -5.68001249 27.98952396 -4.5 26.5 C0.83536003 18.50241534 0.06361059 9.27805958 0 0 Z " fill="#623617" transform="translate(321,132)"/>
<path d="M0 0 C1.01271973 -0.00475342 2.02543945 -0.00950684 3.06884766 -0.0144043 C21.48508621 0.02679193 21.48508621 0.02679193 28.75 3.4375 C34.33165423 5.95070557 39.97825809 8.09125629 45.75 10.125 C45.75 10.785 45.75 11.445 45.75 12.125 C46.33265625 12.23714844 46.9153125 12.34929687 47.515625 12.46484375 C49.95310657 13.18500876 51.4750586 14.16879395 53.5 15.6875 C54.11359375 16.14253906 54.7271875 16.59757812 55.359375 17.06640625 C55.81828125 17.41574219 56.2771875 17.76507813 56.75 18.125 C57.41 17.465 58.07 16.805 58.75 16.125 C59.73770716 19.30991607 60.71359159 22.49833996 61.6875 25.6875 C61.96529297 26.58275391 62.24308594 27.47800781 62.52929688 28.40039062 C64.63269946 35.31881117 65.90222808 41.79452536 65.8125 49.0625 C65.80347656 50.02027344 65.79445313 50.97804687 65.78515625 51.96484375 C65.76775391 53.03412109 65.76775391 53.03412109 65.75 54.125 C64.03127217 51.54690825 62.71589454 49.09250747 61.375 46.3125 C57.07045304 37.74062119 52.3694634 32.88139712 44.75 27.125 C44.19570313 26.64804688 43.64140625 26.17109375 43.0703125 25.6796875 C37.3033564 20.92867185 29.78512001 19.2311021 22.75 17.125 C21.73679687 16.75375 20.72359375 16.3825 19.6796875 16 C13.77536744 14.34179009 7.45019481 14.78699918 1.375 14.8125 C0.7049292 14.81399048 0.0348584 14.81548096 -0.65551758 14.8170166 C-11.1692758 14.85913198 -21.03506207 15.54636453 -31.25 18.125 C-32.45011719 18.41503906 -33.65023437 18.70507812 -34.88671875 19.00390625 C-46.60209483 22.08418665 -58.43131836 26.75356575 -68.6875 33.25 C-72.20395594 35.30649879 -75.21191714 35.79536058 -79.25 36.125 C-79.25 36.785 -79.25 37.445 -79.25 38.125 C-80.99603516 38.77662109 -80.99603516 38.77662109 -82.77734375 39.44140625 C-85.52740711 40.47169806 -88.26963501 41.51839349 -91.00390625 42.58984375 C-98.89331824 45.65549662 -106.73040933 48.18894173 -114.9375 50.2578125 C-117.59645998 50.95390816 -120.11262882 51.74142991 -122.6875 52.6875 C-126.61540743 54.06519888 -130.59560394 54.74812055 -134.6875 55.4375 C-141.85363813 56.65160488 -148.55676689 58.70886028 -155.39819336 61.14379883 C-160.98691757 63.125 -160.98691757 63.125 -164.25 63.125 C-164.25 63.785 -164.25 64.445 -164.25 65.125 C-165.51457031 65.63160156 -165.51457031 65.63160156 -166.8046875 66.1484375 C-167.90039062 66.59445313 -168.99609375 67.04046875 -170.125 67.5 C-171.21554688 67.94085938 -172.30609375 68.38171875 -173.4296875 68.8359375 C-176.31329362 69.95551338 -176.31329362 69.95551338 -178.25 72.125 C-178.97832031 72.393125 -179.70664063 72.66125 -180.45703125 72.9375 C-184.05402358 74.46685059 -186.9091035 76.70378097 -189.9375 79.125 C-190.54891846 79.61049316 -191.16033691 80.09598633 -191.7902832 80.59619141 C-201.40920981 88.29265733 -201.40920981 88.29265733 -208.89453125 97.9140625 C-209.34183594 98.64367187 -209.78914063 99.37328125 -210.25 100.125 C-210.91 100.125 -211.57 100.125 -212.25 100.125 C-213.24 103.095 -214.23 106.065 -215.25 109.125 C-215.91 109.125 -216.57 109.125 -217.25 109.125 C-219.65990104 116.01324069 -219.65990104 116.01324069 -221.25 123.125 C-221.58 123.125 -221.91 123.125 -222.25 123.125 C-222.311875 122.196875 -222.37375 121.26875 -222.4375 120.3125 C-222.91443891 116.95598436 -222.91443891 116.95598436 -225.6875 115.5 C-226.533125 115.04625 -227.37875 114.5925 -228.25 114.125 C-228.91666667 112.79166667 -229.58333333 111.45833333 -230.25 110.125 C-232.30000871 109.31971111 -232.30000871 109.31971111 -234.25 109.125 C-233.755 108.135 -233.755 108.135 -233.25 107.125 C-232.59 107.455 -231.93 107.785 -231.25 108.125 C-230.9096875 107.38636719 -230.569375 106.64773437 -230.21875 105.88671875 C-225.30235388 95.59628326 -219.03565355 86.46677166 -211.25 78.125 C-210.59 78.125 -209.93 78.125 -209.25 78.125 C-209.25 77.465 -209.25 76.805 -209.25 76.125 C-200.42251624 67.88489634 -190.45471744 61.20396064 -179.80078125 55.61328125 C-177.34435762 54.18005398 -175.36005638 52.64682963 -173.25 50.75 C-170.25 48.125 -170.25 48.125 -167.25 48.125 C-167.0128125 47.55265625 -166.775625 46.9803125 -166.53125 46.390625 C-164.97406762 43.6370708 -163.12507203 41.95704366 -160.75 39.875 C-159.9559375 39.16859375 -159.161875 38.4621875 -158.34375 37.734375 C-156.25 36.125 -156.25 36.125 -154.25 36.125 C-154.25 35.465 -154.25 34.805 -154.25 34.125 C-153.26 33.75375 -152.27 33.3825 -151.25 33 C-148.35717262 31.7643412 -146.03544835 30.3139574 -143.5625 28.375 C-118.56303476 8.97886318 -88.72987412 4.42013547 -58.0625 2.5 C-56.14597073 2.37432829 -54.22946697 2.24826686 -52.31298828 2.12182617 C-46.95962321 1.77297269 -41.60523874 1.44369306 -36.25 1.125 C-34.99203613 1.05007324 -33.73407227 0.97514648 -32.43798828 0.89794922 C-21.62647302 0.28225928 -10.82859446 0.04057739 0 0 Z " fill="#603315" transform="translate(255.25,76.875)"/>
<path d="M0 0 C3.4375 0.1875 3.4375 0.1875 4.4375 1.1875 C4.66004868 5.415925 4.60663383 8.99126091 3.4375 13.0625 C1.79841994 19.09621499 1.23897704 24.83484382 4.125 30.5 C6.4511133 33.20332086 8.84678631 35.73682489 11.4375 38.1875 C12.4375 39.1875 12.4375 39.1875 12.75 41.5 C12.4375 44.1875 12.4375 44.1875 10.75 46.5 C8.4375 48.1875 8.4375 48.1875 6.125 48.875 C-0.233209 47.24848142 -4.30150937 40.53552463 -7.5625 35.1875 C-11.50959386 35.89444218 -15.2425535 36.97368523 -19.0625 38.1875 C-26.14899726 40.43928418 -32.28551389 41.38997521 -39.6875 41.4375 C-40.49832031 41.458125 -41.30914062 41.47875 -42.14453125 41.5 C-43.31435547 41.50773437 -43.31435547 41.50773437 -44.5078125 41.515625 C-45.21437988 41.5249707 -45.92094727 41.53431641 -46.64892578 41.54394531 C-49.17294697 41.07379082 -50.04277344 40.23060328 -51.5625 38.1875 C-51.875 34.625 -51.875 34.625 -51.5625 31.1875 C-49.17028446 28.79528446 -48.6057581 28.93155258 -45.34375 28.87890625 C-44.4983667 28.85594482 -43.6529834 28.8329834 -42.78198242 28.80932617 C-41.88455322 28.78974854 -40.98712402 28.7701709 -40.0625 28.75 C-29.47950744 28.36477195 -21.65818883 26.682812 -12.5625 21.1875 C-11.9025 21.1875 -11.2425 21.1875 -10.5625 21.1875 C-10.7171875 19.269375 -10.7171875 19.269375 -10.875 17.3125 C-10.90268581 11.48925111 -8.59811455 7.05368212 -5.5625 2.1875 C-3.5625 0.1875 -3.5625 0.1875 0 0 Z " fill="#060203" transform="translate(197.5625,141.8125)"/>
<path d="M0 0 C-8.14556912 5.43037941 -16.70014398 7.86065594 -26.02734375 10.44482422 C-27.63982529 10.898634 -29.24332093 11.38426815 -30.84375 11.87890625 C-60.60288457 20.87256875 -104.04673581 21.74171155 -133 9 C-129.18243176 7.62567543 -125.92744671 8.32024961 -122 9 C-122 9.66 -122 10.32 -122 11 C-121.01 10.97679687 -120.02 10.95359375 -119 10.9296875 C-117.6666743 10.91090826 -116.33334032 10.8927104 -115 10.875 C-113.700625 10.85179687 -112.40125 10.82859375 -111.0625 10.8046875 C-107.51345196 10.86193021 -104.42183313 11.58221425 -101.01367188 12.51904297 C-97.62249167 13.32901205 -94.22349153 13.47165737 -90.75 13.625 C-89.63757935 13.68083252 -89.63757935 13.68083252 -88.50268555 13.73779297 C-66.50113927 14.77086352 -38.90917007 15.15913379 -19 4.375 C-15.04917001 2.56420292 -11.30076036 2.27716011 -7 2 C-7 1.34 -7 0.68 -7 0 C-3.86650268 -1.04449911 -3.01031744 -0.93423645 0 0 Z " fill="#5B3922" transform="translate(219,266)"/>
<path d="M0 0 C0.74892517 -0.0007251 1.49785034 -0.0014502 2.26947021 -0.00219727 C17.50424351 -0.00053231 17.50424351 -0.00053231 24.4375 1.1875 C24.9325 2.1775 24.9325 2.1775 25.4375 3.1875 C5.6375 3.5175 -14.1625 3.8475 -34.5625 4.1875 C-34.5625 3.5275 -34.5625 2.8675 -34.5625 2.1875 C-23.0539496 0.19220953 -11.6426662 -0.01114279 0 0 Z " fill="#4F4A3C" transform="translate(196.5625,10.8125)"/>
<path d="M0 0 C0.53625 0.53625 1.0725 1.0725 1.625 1.625 C0.573125 1.625 -0.47875 1.625 -1.5625 1.625 C-5.49783574 2.65721921 -6.02935302 2.81658685 -8.1875 5.9375 C-10.24749015 9.56700646 -10.65557353 12.622023 -11 16.75 C-11.49660508 20.53183865 -11.77588957 22.09154551 -14.65625 24.65625 C-23.35235591 29.52989177 -31.57356616 30.94572756 -41.375 30.75 C-42.24511719 30.74097656 -43.11523438 30.73195312 -44.01171875 30.72265625 C-46.1329342 30.69934619 -48.25400562 30.66348579 -50.375 30.625 C-47.52935136 27.77935136 -44.62972784 28.25048131 -40.8125 28.125 C-32.19390935 27.70855953 -25.08739174 26.76335654 -17.375 22.625 C-16.715 22.625 -16.055 22.625 -15.375 22.625 C-15.19324219 21.05298828 -15.19324219 21.05298828 -15.0078125 19.44921875 C-14.83896055 18.07026114 -14.66966659 16.69135761 -14.5 15.3125 C-14.42136719 14.62220703 -14.34273437 13.93191406 -14.26171875 13.22070312 C-13.81556153 9.66860529 -13.39519807 7.6552971 -11.375 4.625 C-10.715 4.625 -10.055 4.625 -9.375 4.625 C-9.33375 4.00625 -9.2925 3.3875 -9.25 2.75 C-8.375 0.625 -8.375 0.625 -5.5625 -0.8125 C-2.375 -1.375 -2.375 -1.375 0 0 Z " fill="#795135" transform="translate(199.375,140.375)"/>
<path d="M0 0 C2.7912125 1.98322993 3.82597224 3.12986121 4.5 6.5 C3.82597224 9.87013879 2.7912125 11.01677007 0 13 C-3.0625 13.5 -3.0625 13.5 -6 13 C-8.59814888 10.74827097 -8.95716454 9.34982295 -9.375 5.9375 C-9 3 -9 3 -7.875 1.125 C-5.07553259 -0.55468045 -3.20195936 -0.45742277 0 0 Z " fill="#150906" transform="translate(178,145)"/>
<path d="M0 0 C1.45823212 -0.0270043 2.91660675 -0.04639787 4.375 -0.0625 C5.18710938 -0.07410156 5.99921875 -0.08570313 6.8359375 -0.09765625 C9 0 9 0 11 1 C11 1.66 11 2.32 11 3 C11.99 2.97679687 12.98 2.95359375 14 2.9296875 C21.00694062 2.8151689 27.22744181 3.04858493 34 5 C37.32572474 5.43797533 40.65605115 5.73961054 44 6 C44 6.66 44 7.32 44 8 C53.9 8 63.8 8 74 8 C74 8.33 74 8.66 74 9 C19.60831002 9.62919734 19.60831002 9.62919734 0 1 C0 0.67 0 0.34 0 0 Z " fill="#4C301E" transform="translate(86,274)"/>
<path d="M0 0 C2 2 2 2 2.375 5.4375 C2 9 2 9 0.3125 10.9375 C-2.39670576 12.18227021 -4.04976219 12.37823562 -7 12 C-7.99 11.34 -8.98 10.68 -10 10 C-10.77902622 2.98876404 -10.77902622 2.98876404 -8.375 -0.0625 C-5.19296594 -1.31856608 -3.25787048 -0.92070253 0 0 Z " fill="#0E0505" transform="translate(157,149)"/>
<path d="M0 0 C0.33 0 0.66 0 1 0 C1.33 2.64 1.66 5.28 2 8 C22.322608 8.96182666 22.322608 8.96182666 41 2 C44.37137384 2.12367081 45.64418662 2.63592789 48.01953125 5.06640625 C48.61121094 5.89011719 49.20289063 6.71382812 49.8125 7.5625 C50.71935547 8.80193359 50.71935547 8.80193359 51.64453125 10.06640625 C52.09183594 10.70449219 52.53914063 11.34257812 53 12 C50 14 50 14 48 14 C47.505 10.535 47.505 10.535 47 7 C42.43996127 5.77657498 40.20229021 6.2494859 35.99609375 8.23046875 C28.66128776 11.05817282 19.74365747 10.09149189 12 10.125 C10.60080322 10.13213013 10.60080322 10.13213013 9.17333984 10.1394043 C8.2911377 10.137229 7.40893555 10.13505371 6.5 10.1328125 C5.7059375 10.13168457 4.911875 10.13055664 4.09375 10.12939453 C2 10 2 10 -1 9 C-0.67 6.03 -0.34 3.06 0 0 Z " fill="#6C4930" transform="translate(145,174)"/>
<path d="M0 0 C0.66 0.33 1.32 0.66 2 1 C0.54712339 2.33927721 -0.91247259 3.67126847 -2.375 5 C-3.18710937 5.7425 -3.99921875 6.485 -4.8359375 7.25 C-7 9 -7 9 -9 9 C-9 9.66 -9 10.32 -9 11 C-11.68380965 13.31928542 -14.49053819 15.44957777 -17.30078125 17.61328125 C-19.9427379 19.94936737 -21.2849916 21.96498513 -23 25 C-24.5703125 26.4765625 -24.5703125 26.4765625 -26.125 27.625 C-29.20979125 29.74604217 -29.20979125 29.74604217 -30 33 C-30.66 33 -31.32 33 -32 33 C-32.061875 33.556875 -32.12375 34.11375 -32.1875 34.6875 C-33.3476371 37.98942866 -35.45559795 39.62907991 -38 42 C-38.928125 42.928125 -39.85625 43.85625 -40.8125 44.8125 C-41.534375 45.534375 -42.25625 46.25625 -43 47 C-37.74485675 32.14617674 -22.11298092 17.69038473 -10 8 C-9.10796875 7.278125 -8.2159375 6.55625 -7.296875 5.8125 C-4.87369606 3.863127 -2.44157757 1.9262446 0 0 Z " fill="#47423A" transform="translate(59,55)"/>
<path d="M0 0 C0.33 0 0.66 0 1 0 C1.01981934 0.77601563 1.03963867 1.55203125 1.06005859 2.3515625 C1.15589878 5.90135587 1.26533804 9.45060781 1.375 13 C1.42140625 14.83111328 1.42140625 14.83111328 1.46875 16.69921875 C1.99563699 32.94490096 7.51192353 45.59084022 18 58 C19.00812032 59.32720428 20.01052181 60.6588398 21 62 C20.67 62.66 20.34 63.32 20 64 C7.72511999 51.66829184 -1.32932518 36.73913138 -1.3125 18.875 C-1.19758602 12.56229149 -0.74379491 6.26912853 0 0 Z " fill="#4A433A" transform="translate(18,199)"/>
<path d="M0 0 C2.21888872 3.32833307 3.08746683 6.49763639 4.0625 10.3125 C4.23587891 10.96412109 4.40925781 11.61574219 4.58789062 12.28710938 C6.46350022 19.4661668 7.17550606 26.15177531 7.23828125 33.53515625 C7.246353 34.45026474 7.25442474 35.36537323 7.26274109 36.30821228 C7.2765317 38.24215836 7.28727617 40.17612827 7.29516602 42.11010742 C7.30664886 44.0659104 7.3270416 46.02168296 7.35668945 47.97729492 C7.52888343 59.35652673 7.44558711 69.33636933 3 80 C1.86614428 76.59843285 2.34096725 74.46041746 2.97998047 70.99804688 C6.71459896 50.60710963 7.56539762 26.63698649 0.8984375 6.70703125 C0 4 0 4 0 0 Z " fill="#46392B" transform="translate(328,97)"/>
<path d="M0 0 C0.33 0 0.66 0 1 0 C1.41805432 23.09267746 1.41805432 23.09267746 -1 32 C-1.17724609 32.66547852 -1.35449219 33.33095703 -1.53710938 34.01660156 C-2.1540555 36.3076879 -2.79060843 38.59219368 -3.4375 40.875 C-3.64270264 41.60170898 -3.84790527 42.32841797 -4.05932617 43.07714844 C-5.25453719 47.10263036 -6.63220903 50.47937786 -9 54 C-9.66 53.34 -10.32 52.68 -11 52 C-10.34 49.69 -9.68 47.38 -9 45 C-8.34 45 -7.68 45 -7 45 C-5.88133105 39.98561551 -5.40072146 34.90285731 -4.92578125 29.79492188 C-4.33059097 24.42307741 -4.33059097 24.42307741 -2.48852539 22.06567383 C-0.71661535 19.60673814 -0.58442825 18.23416133 -0.48828125 15.234375 C-0.45283203 14.34492188 -0.41738281 13.45546875 -0.38085938 12.5390625 C-0.34702148 11.15847656 -0.34702148 11.15847656 -0.3125 9.75 C-0.27833984 8.81414062 -0.24417969 7.87828125 -0.20898438 6.9140625 C-0.12667838 4.60949467 -0.0574737 2.30529881 0 0 Z " fill="#5C3A23" transform="translate(321,132)"/>
<path d="M0 0 C0 0.66 0 1.32 0 2 C-9.79320373 8.83246772 -22.45709017 8.34238295 -34 9 C-34.66 11.31 -35.32 13.62 -36 16 C-29.73 16.33 -23.46 16.66 -17 17 C-17 17.33 -17 17.66 -17 18 C-19.93804996 18.08086376 -22.87388075 18.1404283 -25.8125 18.1875 C-26.64587891 18.21263672 -27.47925781 18.23777344 -28.33789062 18.26367188 C-29.54155273 18.27817383 -29.54155273 18.27817383 -30.76953125 18.29296875 C-31.87711792 18.31653442 -31.87711792 18.31653442 -33.00708008 18.34057617 C-35.59621715 17.89811063 -36.45509737 17.09783412 -38 15 C-38.3125 11.4375 -38.3125 11.4375 -38 8 C-35.60778446 5.60778446 -35.0432581 5.74405258 -31.78125 5.69140625 C-30.935625 5.66828369 -30.09 5.64516113 -29.21875 5.62133789 C-28.3215625 5.60192139 -27.424375 5.58250488 -26.5 5.5625 C-18.41864516 5.28054222 -11.16917464 4.67010675 -3.875 0.90234375 C-2 0 -2 0 0 0 Z " fill="#230F08" transform="translate(184,165)"/>
<path d="M0 0 C0 1.33333333 0 2.66666667 0 4 C0.66 4.33 1.32 4.66 2 5 C1.25556641 5.72703125 1.25556641 5.72703125 0.49609375 6.46875 C-3.04896006 9.96671581 -6.44463291 13.47756071 -9.625 17.3125 C-12.39825902 20.55753182 -14.96340974 22.42474526 -19 24 C-18.06806416 21.92106619 -17.28449445 20.27156289 -15.625 18.6875 C-13.779984 16.93504751 -13.779984 16.93504751 -12.4375 13.9375 C-9.42908993 8.39631782 -4.52753923 4.29424999 0 0 Z " fill="#6B4429" transform="translate(47,84)"/>
<path d="M0 0 C15.93105626 2.29310658 34.49259102 5.61349546 48 15 C48 15.66 48 16.32 48 17 C45.71558534 16.08983874 43.43232357 15.17760444 41.15771484 14.24316406 C27.34551979 8.57679363 13.69606582 4.68485818 -1 2 C-0.67 1.34 -0.34 0.68 0 0 Z " fill="#3C382F" transform="translate(224,13)"/>
<path d="M0 0 C11.33128566 1.66219217 20.09542642 11.35551968 28 19 C28.70511719 19.66515625 29.41023438 20.3303125 30.13671875 21.015625 C33.97073487 24.70825658 37.02603762 28.58411647 40 33 C39.505 33.99 39.505 33.99 39 35 C37.58155991 33.43910974 36.16532975 31.8762111 34.75 30.3125 C33.96109375 29.44238281 33.1721875 28.57226562 32.359375 27.67578125 C30.83293434 25.9446358 29.34733518 24.17622456 27.9140625 22.3671875 C23.13045878 16.45113882 16.89061807 12.09445562 10.75 7.6875 C9.84628662 7.03841675 9.84628662 7.03841675 8.92431641 6.3762207 C6.04483692 4.33956462 3.22424303 2.44452472 0 1 C0 0.67 0 0.34 0 0 Z " fill="#494130" transform="translate(273,30)"/>
<path d="M0 0 C0 0.99 0 1.98 0 3 C0.66 3 1.32 3 2 3 C2 5.31 2 7.62 2 10 C2.66 10.33 3.32 10.66 4 11 C1.11658518 15.19405792 1.11658518 15.19405792 -1 17 C-4.5043228 17.41576711 -6.82121306 17.58939347 -10 16 C-9.67 15.01 -9.34 14.02 -9 13 C-8.67 13.33 -8.34 13.66 -8 14 C-3.6590631 13.85841338 -3.6590631 13.85841338 0 12 C0.33338596 8.54187831 0.33338596 8.54187831 0 5 C-2.82717213 2.66703749 -2.82717213 2.66703749 -6.0625 3.25 C-9.099459 3.7593244 -9.099459 3.7593244 -11 6 C-11.6425235 8.06874034 -11.6425235 8.06874034 -12 10 C-12.66 9.67 -13.32 9.34 -14 9 C-14 7.35 -14 5.7 -14 4 C-13.34 4 -12.68 4 -12 4 C-12 3.34 -12 2.68 -12 2 C-4.71428571 -1.57142857 -4.71428571 -1.57142857 0 0 Z " fill="#794F32" transform="translate(158,146)"/>
<path d="M0 0 C-3.14065891 2.09377261 -5.00142182 2.54743041 -8.6640625 3.21875 C-9.78683594 3.42886719 -10.90960938 3.63898437 -12.06640625 3.85546875 C-13.24074219 4.06816406 -14.41507813 4.28085937 -15.625 4.5 C-17.9299103 4.92587928 -20.23460246 5.35294101 -22.5390625 5.78125 C-23.63766602 5.98492188 -24.73626953 6.18859375 -25.86816406 6.3984375 C-29.93419834 7.17944065 -33.96543582 8.07093192 -38 9 C-38 8.34 -38 7.68 -38 7 C-29.31235764 4.24909447 -20.66552675 1.74031817 -11.6875 0.125 C-10.97730713 -0.00688721 -10.26711426 -0.13877441 -9.53540039 -0.2746582 C-6.10484101 -0.85531628 -3.30528069 -1.24054237 0 0 Z " fill="#524C43" transform="translate(160,15)"/>
<path d="M0 0 C0.66 0.33 1.32 0.66 2 1 C0.6875 2.5 0.6875 2.5 -1 4 C-1.99 4 -2.98 4 -4 4 C-4 4.99 -4 5.98 -4 7 C-8.08511037 11.65536689 -12.17526524 14.10062997 -18 16 C-20.20224377 17.86382558 -22.04760472 19.86166231 -24 22 C-24.66 21.67 -25.32 21.34 -26 21 C-19.45824206 14.15938003 -13.22844916 7.82241078 -5 3 C-4.030625 2.360625 -3.06125 1.72125 -2.0625 1.0625 C-1.381875 0.711875 -0.70125 0.36125 0 0 Z " fill="#5B3821" transform="translate(74,62)"/>
<path d="M0 0 C1.91829926 3.46670225 2.97892443 7.00968534 4.0625 10.8125 C4.40410156 11.99457031 4.74570312 13.17664063 5.09765625 14.39453125 C6.48461835 19.93637548 7.13296026 25.23021933 7.0625 30.9375 C7.05347656 31.89527344 7.04445313 32.85304687 7.03515625 33.83984375 C7.02355469 34.55269531 7.01195312 35.26554687 7 36 C6.67 36 6.34 36 6 36 C6 33.03 6 30.06 6 27 C5.01 26.67 4.02 26.34 3 26 C2.49418146 22.60500696 1.99637756 19.20888518 1.5 15.8125 C1.35691406 14.85279297 1.21382813 13.89308594 1.06640625 12.90429688 C0.93105469 11.97294922 0.79570312 11.04160156 0.65625 10.08203125 C0.53056641 9.22843018 0.40488281 8.3748291 0.27539062 7.49536133 C-0.00272556 4.97530325 -0.047608 2.53314218 0 0 Z " fill="#45291D" transform="translate(314,95)"/>
<path d="M0 0 C1.670625 0.061875 1.670625 0.061875 3.375 0.125 C3.705 1.115 4.035 2.105 4.375 3.125 C3.50875 3.145625 2.6425 3.16625 1.75 3.1875 C-2.93988986 4.49024718 -5.08497953 7.05595405 -7.625 11.125 C-8.52330839 14.17772465 -8.52330839 14.17772465 -8.625 17.125 C-8.95135698 18.79304677 -9.28225594 20.46024314 -9.625 22.125 C-10.945 22.455 -12.265 22.785 -13.625 23.125 C-13.295 22.465 -12.965 21.805 -12.625 21.125 C-11.965 21.125 -11.305 21.125 -10.625 21.125 C-10.728125 19.84625 -10.83125 18.5675 -10.9375 17.25 C-10.96518581 11.42675111 -8.66061455 6.99118212 -5.625 2.125 C-3.625 0.125 -3.625 0.125 0 0 Z " fill="#28140C" transform="translate(197.625,141.875)"/>
<path d="M0 0 C3.80635497 3.20760251 7.54563567 6.40746109 11 10 C10.67 10.66 10.34 11.32 10 12 C11.98 12.66 13.96 13.32 16 14 C16.33 15.98 16.66 17.96 17 20 C16.01 20 15.02 20 14 20 C12.53515625 18.42578125 12.53515625 18.42578125 11.0625 16.3125 C10.27939453 15.21808594 10.27939453 15.21808594 9.48046875 14.1015625 C8.99191406 13.40804687 8.50335938 12.71453125 8 12 C6.00650118 9.36154567 4.46189959 7.3207636 1.75 5.4375 C0.88375 4.7259375 0.88375 4.7259375 0 4 C0 2.68 0 1.36 0 0 Z " fill="#432917" transform="translate(36,236)"/>
<path d="M0 0 C0.33 0 0.66 0 1 0 C1.21914063 1.03898438 1.43828125 2.07796875 1.6640625 3.1484375 C4.34638578 15.1986374 8.60907234 23.80993637 17 33 C16.67 33.66 16.34 34.32 16 35 C10.65753062 30.21179257 7.14360414 25.42812846 4 19 C3.60554687 18.26652344 3.21109375 17.53304687 2.8046875 16.77734375 C-0.06286858 11.09236369 -0.47450645 6.31357194 0 0 Z " fill="#484239" transform="translate(0,164)"/>
<path d="M0 0 C0.66 0.33 1.32 0.66 2 1 C2.12545115 8.40161792 2.12545115 8.40161792 1.5078125 11.34765625 C-0.1250452 19.87619763 0.70902046 28.69519915 3 37 C1.68 36.34 0.36 35.68 -1 35 C-1.22885198 31.04257936 -1.42926497 27.08418582 -1.625 23.125 C-1.68945312 22.01640625 -1.75390625 20.9078125 -1.8203125 19.765625 C-2.14558312 12.85362432 -1.75054071 6.70440022 0 0 Z " fill="#27110A" transform="translate(31,193)"/>
<path d="M0 0 C21.0683131 3.15195235 21.0683131 3.15195235 26 9 C9.4375 7.4375 9.4375 7.4375 5 3 C3.35008418 2.29289322 1.68437744 1.62056011 0 1 C0 0.67 0 0.34 0 0 Z " fill="#714E34" transform="translate(239,31)"/>
<path d="M0 0 C0.85574112 0.02361099 1.71148224 0.04722198 2.59315491 0.07154846 C5.30318287 0.14759307 8.01288127 0.23186879 10.72265625 0.31640625 C12.5696458 0.36968635 14.41665101 0.42242625 16.26367188 0.47460938 C20.7710386 0.60312716 25.27812851 0.73902313 29.78515625 0.87890625 C29.78515625 1.20890625 29.78515625 1.53890625 29.78515625 1.87890625 C14.60515625 2.20890625 -0.57484375 2.53890625 -16.21484375 2.87890625 C-16.21484375 2.21890625 -16.21484375 1.55890625 -16.21484375 0.87890625 C-10.72869915 -0.07339354 -5.55651344 -0.18388028 0 0 Z " fill="#221E19" transform="translate(178.21484375,12.12109375)"/>
<path d="M0 0 C0.33 0 0.66 0 1 0 C1.39325819 6.97669157 0.63096039 12.51656189 -2 19 C-2.66 19 -3.32 19 -4 19 C-4 16.03 -4 13.06 -4 10 C-4.66 9.67 -5.32 9.34 -6 9 C-5.34 9 -4.68 9 -4 9 C-3.896875 8.443125 -3.79375 7.88625 -3.6875 7.3125 C-2.86410318 4.54289253 -1.59831722 2.39747583 0 0 Z " fill="#6D3E1A" transform="translate(316,158)"/>
<path d="M0 0 C0 3 0 3 -1.765625 4.9453125 C-19.28467106 20.31579631 -19.28467106 20.31579631 -27 23 C-27 22.34 -27 21.68 -27 21 C-24.96801244 19.44325991 -22.93005326 17.9946857 -20.8125 16.5625 C-13.47579905 11.48003972 -6.71600889 5.86814066 0 0 Z " fill="#41362F" transform="translate(292,235)"/>
<path d="M0 0 C1.31248283 2.62496565 0.73930463 3.60199826 0.0625 6.4375 C-1.61788692 14.87326787 -1.1596447 23.44127005 -1 32 C-5.21849524 25.67225714 -4.4676594 18.37950683 -4 11 C-2.19462025 2.19462025 -2.19462025 2.19462025 0 0 Z " fill="#714B30" transform="translate(35,196)"/>
<path d="M0 0 C0.66 0.33 1.32 0.66 2 1 C1.34773438 1.38671875 0.69546875 1.7734375 0.0234375 2.171875 C-3.74872968 4.41959704 -7.49292195 6.65518693 -11.125 9.125 C-14.56969261 11.37153866 -18.12545946 13.57758985 -22 15 C-22.66 14.67 -23.32 14.34 -24 14 C-21.87330165 11.66063182 -19.93775144 10.19346152 -17 9 C-16.01 9 -15.02 9 -14 9 C-14 8.01 -14 7.02 -14 6 C-11.71220962 4.96959833 -9.42048864 3.95047982 -7.125 2.9375 C-6.47402344 2.64294922 -5.82304688 2.34839844 -5.15234375 2.04492188 C-3.45989459 1.30338487 -1.73131425 0.64560999 0 0 Z " fill="#452A17" transform="translate(101,45)"/>
<path d="M0 0 C2.21888872 3.32833307 3.08746683 6.49763639 4.0625 10.3125 C4.23587891 10.96412109 4.40925781 11.61574219 4.58789062 12.28710938 C6.18586494 18.40349383 7.13277436 24.05030735 7.0625 30.375 C7.05347656 31.43460938 7.04445313 32.49421875 7.03515625 33.5859375 C7.02355469 34.38257813 7.01195312 35.17921875 7 36 C6.67 36 6.34 36 6 36 C4.53876729 28.52284113 3.45545998 21.04670998 2.5625 13.48046875 C2.0219283 10.13568139 1.07219424 7.20318028 0 4 C0 2.68 0 1.36 0 0 Z " fill="#584D3F" transform="translate(328,97)"/>
<path d="M0 0 C0 0.66 0 1.32 0 2 C-8.36682929 7.29330017 -16.21377805 7.19431438 -25.9375 7.5625 C-27.53561523 7.62727539 -27.53561523 7.62727539 -29.16601562 7.69335938 C-31.77723443 7.79874489 -34.38853746 7.90087088 -37 8 C-36.67 7.34 -36.34 6.68 -36 6 C-35.16976318 5.97812622 -35.16976318 5.97812622 -34.32275391 5.95581055 C-18.62237193 5.74147383 -18.62237193 5.74147383 -3.875 0.90234375 C-2 0 -2 0 0 0 Z " fill="#311C13" transform="translate(184,165)"/>
<path d="M0 0 C5.33618743 5.18372494 10.0928842 10.63284833 14 17 C14 17.66 14 18.32 14 19 C12.0625 18.25 12.0625 18.25 10 17 C9.25 14.875 9.25 14.875 9 13 C8.34 13 7.68 13 7 13 C5.98648336 11.34151823 4.98879205 9.67334039 4 8 C3.278125 7.319375 2.55625 6.63875 1.8125 5.9375 C0 4 0 4 0 0 Z " fill="#714C31" transform="translate(292,60)"/>
<path d="M0 0 C2.08696247 0.39809111 4.1695344 0.8192428 6.25 1.25 C7.99023438 1.59804688 7.99023438 1.59804688 9.765625 1.953125 C13.21862471 3.07076259 14.70270657 4.24779698 17 7 C16.67 7.66 16.34 8.32 16 9 C10.53262809 7.25192871 5.24175152 5.34205919 0 3 C0 2.01 0 1.02 0 0 Z " fill="#593823" transform="translate(70,265)"/>
<path d="M0 0 C2.36526931 2.16195103 3.75292087 4.2088787 5.1875 7.0625 C8.14041875 12.56978404 11.9892146 17.2328382 16 22 C15.67 22.66 15.34 23.32 15 24 C8.541734 17.38064347 2.84265469 10.49146071 -1 2 C-0.67 1.34 -0.34 0.68 0 0 Z " fill="#483A34" transform="translate(23,239)"/>
<path d="M0 0 C0 0.99 0 1.98 0 3 C-3.26669046 4.5091441 -6.53898816 6.00571701 -9.8125 7.5 C-10.74126953 7.92925781 -11.67003906 8.35851562 -12.62695312 8.80078125 C-13.51962891 9.20683594 -14.41230469 9.61289062 -15.33203125 10.03125 C-16.56530151 10.59682617 -16.56530151 10.59682617 -17.82348633 11.17382812 C-20 12 -20 12 -23 12 C-23 11.34 -23 10.68 -23 10 C-22.01 9.61328125 -21.02 9.2265625 -20 8.828125 C-13.18005866 6.14433181 -6.48292757 3.43992075 0 0 Z " fill="#352B24" transform="translate(241,270)"/>
<path d="M0 0 C0.66 0.33 1.32 0.66 2 1 C1.61328125 1.68964844 1.2265625 2.37929687 0.828125 3.08984375 C-2.10141848 8.37607443 -4.8360972 13.63316557 -7.140625 19.22265625 C-8 21 -8 21 -10 23 C-9.51869135 17.20925533 -7.84218597 13.15348288 -5 8.125 C-4.63132812 7.44953125 -4.26265625 6.7740625 -3.8828125 6.078125 C-1.19747489 1.19747489 -1.19747489 1.19747489 0 0 Z " fill="#4A413B" transform="translate(14,103)"/>
<path d="M0 0 C0 0.33 0 0.66 0 1 C-9.42995201 3.27866621 -18.30850793 4.57286737 -28 5 C-28 4.34 -28 3.68 -28 3 C-24.64703509 2.49171557 -21.29246657 1.99488543 -17.9375 1.5 C-16.52307617 1.28537109 -16.52307617 1.28537109 -15.08007812 1.06640625 C-9.99267758 0.32190861 -5.1412006 -0.17113566 0 0 Z " fill="#825437" transform="translate(178,27)"/>
<path d="M0 0 C1.86699386 3.73398771 0.02783204 8.11468726 -1 12 C-2.2084705 15.39106931 -3.55506481 18.7033032 -5 22 C-5.33 22 -5.66 22 -6 22 C-5.60901934 16.05439752 -4.57162134 11.45183724 -2 6 C-1.31163487 4.00736409 -0.63718601 2.00958663 0 0 Z " fill="#69452E" transform="translate(19,122)"/>
<path d="M0 0 C-1.12073862 0.83905565 -2.24674547 1.67107831 -3.375 2.5 C-4.31472656 3.19609375 -4.31472656 3.19609375 -5.2734375 3.90625 C-7 5 -7 5 -9 5 C-9 5.66 -9 6.32 -9 7 C-11.64738916 8.4606285 -12.89448334 9 -16 9 C-16 9.66 -16 10.32 -16 11 C-18 10 -18 10 -19 8 C-15.535 7.505 -15.535 7.505 -12 7 C-12 6.01 -12 5.02 -12 4 C-10.56988027 3.13353333 -9.13059381 2.28218171 -7.6875 1.4375 C-6.88699219 0.96183594 -6.08648437 0.48617187 -5.26171875 -0.00390625 C-3 -1 -3 -1 0 0 Z " fill="#55351F" transform="translate(260,245)"/>
<path d="M0 0 C0.99 0.33 1.98 0.66 3 1 C-7.37357631 10.59453303 -7.37357631 10.59453303 -13 14 C-11.50198648 10.38522825 -9.42462583 8.31379537 -6.5 5.75 C-5.7059375 5.04359375 -4.911875 4.3371875 -4.09375 3.609375 C-2 2 -2 2 0 2 C0 1.34 0 0.68 0 0 Z M-16 14 C-15.01 14.33 -14.02 14.66 -13 15 C-14.65 16.32 -16.3 17.64 -18 19 C-18.66 18.67 -19.32 18.34 -20 18 C-18.68 16.68 -17.36 15.36 -16 14 Z " fill="#75441B" transform="translate(101,111)"/>
<path d="M0 0 C0.99 0 1.98 0 3 0 C3 0.66 3 1.32 3 2 C2.34 2 1.68 2 1 2 C0.938125 2.556875 0.87625 3.11375 0.8125 3.6875 C-0.3476371 6.98942866 -2.45559795 8.62907991 -5 11 C-5.928125 11.928125 -6.85625 12.85625 -7.8125 13.8125 C-8.534375 14.534375 -9.25625 15.25625 -10 16 C-8.56113295 11.92196748 -6.58315089 8.69388029 -4.0625 5.1875 C-3.37285156 4.21167969 -2.68320312 3.23585938 -1.97265625 2.23046875 C-1.32167969 1.49441406 -0.67070312 0.75835937 0 0 Z " fill="#231D17" transform="translate(26,86)"/>
<path d="M0 0 C0.33 0 0.66 0 1 0 C1.03738281 1.0621875 1.07476562 2.124375 1.11328125 3.21875 C1.4392601 10.71272036 1.81468826 17.09849123 5 24 C5.71875 26.078125 5.71875 26.078125 6 28 C5.34 28.66 4.68 29.32 4 30 C-0.00272711 19.72514247 -0.46909786 10.88046418 0 0 Z " fill="#754F37" transform="translate(12,145)"/>
<path d="M0 0 C4.21135709 0.57323372 7.01294352 2.00701617 10.5625 4.3125 C11.49191406 4.90675781 12.42132813 5.50101563 13.37890625 6.11328125 C15.85991523 7.89916402 17.91240637 9.77487079 20 12 C15.92687538 12 13.72901734 9.93178135 10.5625 7.625 C5.50349975 3.94711598 5.50349975 3.94711598 0 1 C0 0.67 0 0.34 0 0 Z " fill="#362E27" transform="translate(273,30)"/>
<path d="M0 0 C0.99 0.33 1.98 0.66 3 1 C3.36337162 4.27034459 3.28544288 5.60883753 1.3125 8.3125 C-1 10 -1 10 -3.5625 10.5 C-6 10 -6 10 -7.8125 8 C-8.204375 7.34 -8.59625 6.68 -9 6 C-6.69 6.33 -4.38 6.66 -2 7 C-1.34 4.69 -0.68 2.38 0 0 Z " fill="#27120C" transform="translate(207,180)"/>
<path d="M0 0 C0.33 0 0.66 0 1 0 C1.309375 1.134375 1.61875 2.26875 1.9375 3.4375 C2.62924531 6.78775099 2.62924531 6.78775099 4 8 C8.03160191 8.26293056 9.55892734 8.29404844 13 6 C12.67 7.65 12.34 9.3 12 11 C10.56260487 11.02712066 9.12506137 11.04645067 7.6875 11.0625 C6.48673828 11.07990234 6.48673828 11.07990234 5.26171875 11.09765625 C3 11 3 11 0 10 C0 6.7 0 3.4 0 0 Z " fill="#734C33" transform="translate(168,149)"/>
<path d="M0 0 C0.66 0.33 1.32 0.66 2 1 C-1.38700501 5.35305799 -3.74666162 8.04876003 -9 10 C-9.73323796 12.01508358 -9.73323796 12.01508358 -10 14 C-10.99 14.495 -10.99 14.495 -12 15 C-11.58443583 10.15175132 -9.62551755 8.11963138 -6 5 C-3.6875 3.6875 -3.6875 3.6875 -2 3 C-2 2.34 -2 1.68 -2 1 C-1.34 0.67 -0.68 0.34 0 0 Z " fill="#5C3720" transform="translate(299,206)"/>
<path d="M0 0 C0.33 0.99 0.66 1.98 1 3 C-0.38607623 4.46761013 -1.78431195 5.92374189 -3.1875 7.375 C-3.96480469 8.18710938 -4.74210937 8.99921875 -5.54296875 9.8359375 C-7.987055 11.98859852 -9.92616557 13.00632706 -13 14 C-9.82767331 8.58060857 -5.80502622 4.99136045 -1 1 C-0.67 0.67 -0.34 0.34 0 0 Z " fill="#7A4F32" transform="translate(57,76)"/>
<path d="M0 0 C0.5671875 0.29261719 1.134375 0.58523438 1.71875 0.88671875 C3.94678427 1.97402999 6.20089313 2.8873457 8.5 3.8125 C12.43080253 5.52858347 14.64687229 7.31684359 17 11 C9.89281766 9.27255985 5.02711906 6.34217012 0 1 C0 0.67 0 0.34 0 0 Z " fill="#341E14" transform="translate(53,256)"/>
<path d="M0 0 C1.12870766 3.0098871 0.90400615 4.59516189 0.375 7.875 C-0.26465217 12.06394168 0.93644546 14.30279812 3 18 C2.67 18.99 2.34 19.98 2 21 C-1.82638443 16.45616849 -2.50543656 13.26363227 -2.2734375 7.34765625 C-1.95787081 4.63829084 -1.28488978 2.40916834 0 0 Z " fill="#7D5538" transform="translate(201,154)"/>
<path d="M0 0 C0.12375 0.639375 0.2475 1.27875 0.375 1.9375 C0.58125 2.618125 0.7875 3.29875 1 4 C1.66 4.33 2.32 4.66 3 5 C0.11658518 9.19405792 0.11658518 9.19405792 -2 11 C-5.5043228 11.41576711 -7.82121306 11.58939347 -11 10 C-10.67 9.01 -10.34 8.02 -10 7 C-9.67 7.33 -9.34 7.66 -9 8 C-6.66055264 7.71269945 -4.3260857 7.38063221 -2 7 C-1.34 4.69 -0.68 2.38 0 0 Z " fill="#70492F" transform="translate(159,152)"/>
<path d="M0 0 C-4.9959021 3.3306014 -8.15675156 4.2864862 -14.25 4.625 C-15.51328125 4.69976562 -16.7765625 4.77453125 -18.078125 4.8515625 C-19.52445313 4.92503906 -19.52445313 4.92503906 -21 5 C-17.77038428 2.84692286 -15.38872346 2.22765131 -11.625 1.375 C-10.50351563 1.11460938 -9.38203125 0.85421875 -8.2265625 0.5859375 C-5.3847292 0.06986608 -2.87555316 -0.11846848 0 0 Z " fill="#63402B" transform="translate(150,30)"/>
<path d="M0 0 C1.98 0.66 3.96 1.32 6 2 C6.05422947 3.4370809 6.09289723 4.87475462 6.125 6.3125 C6.14820313 7.11300781 6.17140625 7.91351563 6.1953125 8.73828125 C6 11 6 11 4 14 C3.34 14 2.68 14 2 14 C2.10699219 13.32453125 2.21398437 12.6490625 2.32421875 11.953125 C2.50404297 10.61507812 2.50404297 10.61507812 2.6875 9.25 C2.81511719 8.36828125 2.94273437 7.4865625 3.07421875 6.578125 C2.98397191 3.44323483 2.07384637 2.28176413 0 0 Z " fill="#7C5336" transform="translate(178,145)"/>
<path d="M0 0 C2.24973447 -0.054138 4.49984383 -0.09285491 6.75 -0.125 C8.00296875 -0.14820312 9.2559375 -0.17140625 10.546875 -0.1953125 C13.72820492 -0.01537302 15.36521896 0.31001418 18 2 C15.93906592 2.223293 13.8761161 2.42802887 11.8125 2.625 C10.66394531 2.74101562 9.51539063 2.85703125 8.33203125 2.9765625 C4.96669584 3.00023426 2.98778294 2.47419799 0 1 C0 0.67 0 0.34 0 0 Z " fill="#774F33" transform="translate(212,27)"/>
<path d="M0 0 C0.73046875 1.59375 0.73046875 1.59375 1 4 C-0.1378211 6.32856411 -1.27987968 8.34831695 -2.6875 10.5 C-3.04005859 11.06847656 -3.39261719 11.63695312 -3.75585938 12.22265625 C-5.86221395 15.54199381 -8.10995018 18.33828369 -11 21 C-9.66959987 17.42892597 -8.07110473 14.29773358 -6.0625 11.0625 C-3.84839123 7.44088932 -1.81636876 3.83455628 0 0 Z " fill="#3C3925" transform="translate(322,193)"/>
<path d="M0 0 C1 2 1 2 0.44140625 4.1640625 C0.15136719 4.97617188 -0.13867188 5.78828125 -0.4375 6.625 C-0.72496094 7.44226563 -1.01242188 8.25953125 -1.30859375 9.1015625 C-1.65083984 10.04128906 -1.65083984 10.04128906 -2 11 C-2.66 11 -3.32 11 -4 11 C-4 11.99 -4 12.98 -4 14 C-4.99 14 -5.98 14 -7 14 C-5.53967505 8.68972746 -3.01679014 4.53669968 0 0 Z " fill="#65412C" transform="translate(27,108)"/>
<path d="M0 0 C0.66 0.33 1.32 0.66 2 1 C-0.65159813 3.93569793 -2.20686111 5.13299683 -6 6 C-7.19951304 6.68779417 -8.38609143 7.39839471 -9.5625 8.125 C-10.696875 8.74375 -11.83125 9.3625 -13 10 C-13.99 9.67 -14.98 9.34 -16 9 C-14.08424874 7.87344187 -12.16736281 6.74881313 -10.25 5.625 C-9.18265625 4.99851562 -8.1153125 4.37203125 -7.015625 3.7265625 C-1.78415614 0.73134328 -1.78415614 0.73134328 0 0 Z " fill="#794E30" transform="translate(109,42)"/>
<path d="M0 0 C0.93556174 3.09949461 0.99804043 5.65562279 0.8125 8.875 C0.73778319 13.94079948 1.81260544 16.13649144 5 20 C5.33 20.66 5.66 21.32 6 22 C3.0965243 20.69844193 0.90677791 19.57658091 -1 17 C-1.328125 13.75 -1.328125 13.75 -1.25 10 C-1.23453125 8.7625 -1.2190625 7.525 -1.203125 6.25 C-1 3 -1 3 0 0 Z " fill="#392116" transform="translate(199,155)"/>
<path d="M0 0 C0.33 0 0.66 0 1 0 C1.07390791 4.65619822 1.07439826 9.29030638 0.75 13.9375 C0.70359375 14.66839844 0.6571875 15.39929688 0.609375 16.15234375 C0 18 0 18 -2.046875 19.25390625 C-2.69140625 19.50011719 -3.3359375 19.74632812 -4 20 C-3.79503906 19.2265625 -3.59007812 18.453125 -3.37890625 17.65625 C-1.85480885 11.7640457 -0.58263288 6.05938192 0 0 Z " fill="#1F0D07" transform="translate(321,153)"/>
<path d="M0 0 C0.66 0.33 1.32 0.66 2 1 C-2.13882676 6.3651458 -6.6348542 10.86117324 -12 15 C-10.38462556 11.10082032 -7.72075127 8.28706228 -4.875 5.25 C-4.40707031 4.74339844 -3.93914063 4.23679687 -3.45703125 3.71484375 C-2.30873459 2.47280859 -1.15491328 1.23588506 0 0 Z " fill="#6D5C55" transform="translate(39,72)"/>
<path d="M0 0 C1.9169986 0.31045732 3.83358723 0.62344671 5.75 0.9375 C7.35101563 1.19853516 7.35101563 1.19853516 8.984375 1.46484375 C11.36347593 1.88704171 13.66915211 2.37202884 16 3 C16 3.66 16 4.32 16 5 C10.27601207 4.25339288 4.65146223 3.17122859 -1 2 C-0.67 1.34 -0.34 0.68 0 0 Z " fill="#544A44" transform="translate(224,13)"/>
<path d="M0 0 C0.99 0.66 1.98 1.32 3 2 C0.84023816 4.15976184 0.00568118 4.41570555 -2.875 5.0625 C-3.55304688 5.21847656 -4.23109375 5.37445312 -4.9296875 5.53515625 C-5.61289063 5.68855469 -6.29609375 5.84195312 -7 6 C-8.33414401 6.33007369 -9.66772763 6.66245117 -11 7 C-10 4 -10 4 -7.8203125 2.76171875 C-6.93085937 2.40722656 -6.04140625 2.05273438 -5.125 1.6875 C-4.24070312 1.32011719 -3.35640625 0.95273437 -2.4453125 0.57421875 C-1.23488281 0.28998047 -1.23488281 0.28998047 0 0 Z " fill="#3A3729" transform="translate(117,23)"/>
<path d="M0 0 C0.99 0.33 1.98 0.66 3 1 C2.34 2.98 1.68 4.96 1 7 C4.3 7 7.6 7 11 7 C8 10 8 10 5.5 10.3125 C3 10 3 10 0 8 C-0.40843923 5.28796348 -0.13336867 2.7562858 0 0 Z " fill="#240F09" transform="translate(147,151)"/>
<path d="M0 0 C0.99 0 1.98 0 3 0 C3.804375 0.969375 4.60875 1.93875 5.4375 2.9375 C7.64198608 6.080518 7.64198608 6.080518 10.3125 6.875 C10.869375 6.91625 11.42625 6.9575 12 7 C12.66 9.31 13.32 11.62 14 14 C9.10565787 9.90473413 4.29279666 5.73642915 0 1 C0 0.67 0 0.34 0 0 Z " fill="#29140C" transform="translate(282,50)"/>
<path d="M0 0 C0.66 0.33 1.32 0.66 2 1 C-2.26601149 4.12147182 -5.79878722 5.69969681 -11 7 C-11.99 7.495 -11.99 7.495 -13 8 C-13.66 7.34 -14.32 6.68 -15 6 C-13.06305322 5.18618205 -11.12542289 4.37399084 -9.1875 3.5625 C-8.10855469 3.11003906 -7.02960938 2.65757813 -5.91796875 2.19140625 C-3.9704874 1.39624987 -1.99561057 0.66520352 0 0 Z " fill="#68442C" transform="translate(126,35)"/>
<path d="M0 0 C0.33 0.66 0.66 1.32 1 2 C-2.80411834 5.91939465 -6.81576108 9.49102731 -11 13 C-9.63422544 8.71506993 -7.79318655 6.56854295 -4.375 3.6875 C-3.55773438 2.99011719 -2.74046875 2.29273437 -1.8984375 1.57421875 C-0.95871094 0.79498047 -0.95871094 0.79498047 0 0 Z " fill="#140F0B" transform="translate(47,67)"/>
<path d="M0 0 C5.75 1.875 5.75 1.875 8 3 C8.40729228 5.32156597 8.74438677 7.6568787 9 10 C8.34 10 7.68 10 7 10 C6.67 8.02 6.34 6.04 6 4 C4.02 3.34 2.04 2.68 0 2 C0 1.34 0 0.68 0 0 Z " fill="#552F12" transform="translate(46,246)"/>
<path d="M0 0 C0.66 0.33 1.32 0.66 2 1 C2.36923077 8.38461538 2.36923077 8.38461538 0.5 11.5 C0.005 11.995 -0.49 12.49 -1 13 C-2.12758089 9.61725734 -1.81750262 8.23221777 -1.0625 4.8125 C-0.86785156 3.91144531 -0.67320313 3.01039063 -0.47265625 2.08203125 C-0.23869141 1.05142578 -0.23869141 1.05142578 0 0 Z " fill="#1B0A06" transform="translate(31,193)"/>
<path d="M0 0 C3.25524265 3.02272532 5.61820737 6.25718301 8 10 C6.35 10.33 4.7 10.66 3 11 C2.67 8.69 2.34 6.38 2 4 C1.34 4 0.68 4 0 4 C0 2.68 0 1.36 0 0 Z " fill="#6A452C" transform="translate(190,177)"/>
<path d="M0 0 C1.21236328 0.04060547 1.21236328 0.04060547 2.44921875 0.08203125 C3.06410156 0.11683594 3.67898437 0.15164062 4.3125 0.1875 C4.3125 0.5175 4.3125 0.8475 4.3125 1.1875 C2.641875 1.620625 2.641875 1.620625 0.9375 2.0625 C-2.87688523 3.24627473 -3.98120009 3.85337795 -5.8125 7.3125 C-6.10125 7.93125 -6.39 8.55 -6.6875 9.1875 C-7.375 6.375 -7.375 6.375 -7.6875 3.1875 C-5.48638877 0.0596051 -3.70063338 -0.1608971 0 0 Z " fill="#7D5336" transform="translate(173.6875,143.8125)"/>
<path d="M0 0 C5.841744 -0.35050464 9.8531808 -0.16727335 15 3 C11.34142468 4.31534494 8.91973519 3.65468309 5.25 2.5625 C4.26515625 2.27503906 3.2803125 1.98757812 2.265625 1.69140625 C1.51796875 1.46324219 0.7703125 1.23507813 0 1 C0 0.67 0 0.34 0 0 Z " fill="#27140D" transform="translate(235,29)"/>
<path d="M0 0 C0 0.33 0 0.66 0 1 C-4.76307437 1.95261487 -9.1666528 2.08333357 -14 2 C-14 1.34 -14 0.68 -14 0 C-9.02936879 -0.91297308 -4.97063121 -0.91297308 0 0 Z " fill="#5D5748" transform="translate(176,13)"/>
<path d="M0 0 C2.97 0.495 2.97 0.495 6 1 C6 2.32 6 3.64 6 5 C6.99 5.33 7.98 5.66 9 6 C9.33 6.99 9.66 7.98 10 9 C7.42262834 7.96905133 6.23715753 7.4891374 5 4.9375 C4.1704178 2.78719721 4.1704178 2.78719721 1.875 2.25 C0.946875 2.12625 0.946875 2.12625 0 2 C0 1.34 0 0.68 0 0 Z " fill="#3C2518" transform="translate(21,184)"/>
<path d="M0 0 C3.00825564 1.50412782 3.30662971 3.86048301 4.40234375 6.921875 C5.10104707 9.35135321 5.23571669 11.48568864 5 14 C1.84888788 11.47047712 1.41201983 9.23243734 0.8125 5.3125 C0.65394531 4.31863281 0.49539063 3.32476562 0.33203125 2.30078125 C0.22246094 1.54152344 0.11289062 0.78226562 0 0 Z " fill="#684831" transform="translate(308,82)"/>
<path d="M0 0 C0 0.66 0 1.32 0 2 C-1.62324086 2.22162329 -3.248721 2.42689803 -4.875 2.625 C-6.23238281 2.79902344 -6.23238281 2.79902344 -7.6171875 2.9765625 C-8.40351563 2.98429687 -9.18984375 2.99203125 -10 3 C-10.66 2.34 -11.32 1.68 -12 1 C-8.0186217 -0.3271261 -4.14954773 -0.06915913 0 0 Z " fill="#363226" transform="translate(147,17)"/>
<path d="M0 0 C1.258125 -0.020625 2.51625 -0.04125 3.8125 -0.0625 C4.52019531 -0.07410156 5.22789063 -0.08570313 5.95703125 -0.09765625 C8 0 8 0 11 1 C11 1.66 11 2.32 11 3 C7.37 2.67 3.74 2.34 0 2 C0 1.34 0 0.68 0 0 Z " fill="#1F1B13" transform="translate(113,293)"/>
<path d="M0 0 C6 7.4 6 7.4 6 11 C2.60582235 7.87378374 0.3937282 5.43458973 -1 1 C-0.67 0.67 -0.34 0.34 0 0 Z " fill="#744E33" transform="translate(18,175)"/>
<path d="M0 0 C0.66 0.33 1.32 0.66 2 1 C0.35 4.3 -1.3 7.6 -3 11 C-3.66 10.67 -4.32 10.34 -5 10 C-3.84414715 6.08788267 -2.64465038 3.1254959 0 0 Z " fill="#3C342F" transform="translate(14,103)"/>
<path d="M0 0 C0.33 0 0.66 0 1 0 C2.6290678 4.79137588 3.20577428 8.05632546 2 13 C-0.20914 9.68629 -0.22481553 8.6553979 -0.125 4.8125 C-0.10695312 3.91144531 -0.08890625 3.01039063 -0.0703125 2.08203125 C-0.04710937 1.39496094 -0.02390625 0.70789063 0 0 Z " fill="#3D362B" transform="translate(0,164)"/>
<path d="M0 0 C0.99 0.99 1.98 1.98 3 3 C1.88213958 6.35358125 0.25245881 8.31158141 -2 11 C-1 3.57142857 -1 3.57142857 0 0 Z " fill="#100D0A" transform="translate(3,129)"/>
<path d="M0 0 C-6.75 4 -6.75 4 -9 4 C-9 3.01 -9 2.02 -9 1 C-5.57367167 -0.61798838 -3.61944899 -1.34053666 0 0 Z " fill="#513320" transform="translate(235,260)"/>
<path d="M0 0 C0.66 0.33 1.32 0.66 2 1 C-0.31 3.97 -2.62 6.94 -5 10 C-5.33 9.34 -5.66 8.68 -6 8 C-4.02 5.36 -2.04 2.72 0 0 Z " fill="#514B3F" transform="translate(22,92)"/>
<path d="M0 0 C3.34998521 1.11666174 3.79340222 1.74694925 5.6875 4.5625 C6.12449219 5.20316406 6.56148438 5.84382813 7.01171875 6.50390625 C7.33785156 6.99761719 7.66398437 7.49132813 8 8 C7.67 8.66 7.34 9.32 7 10 C5.82739389 8.71372289 4.6620717 7.42080217 3.5 6.125 C2.8503125 5.40570313 2.200625 4.68640625 1.53125 3.9453125 C0 2 0 2 0 0 Z " fill="#574E43" transform="translate(305,55)"/>
<path d="M0 0 C-0.3810518 2.76262553 -0.83597132 3.84143894 -2.875 5.8125 C-3.57625 6.204375 -4.2775 6.59625 -5 7 C-5.99 6.67 -6.98 6.34 -8 6 C-7.01 5.34 -6.02 4.68 -5 4 C-4.67 3.01 -4.34 2.02 -4 1 C-2 0 -2 0 0 0 Z " fill="#1F1B16" transform="translate(81,41)"/>
<path d="M0 0 C-1.90401138 1.90401138 -3.33425686 2.93520439 -6.046875 3.19921875 C-8.03233273 3.1886578 -10.0169914 3.09915043 -12 3 C-11.67 2.34 -11.34 1.68 -11 1 C-7.318488 -0.05186057 -3.80944893 -0.08859184 0 0 Z " fill="#805536" transform="translate(139,34)"/>
<path d="M0 0 C0 3.19219704 -0.23605791 4.39608549 -2 7 C-4.625 8.25 -4.625 8.25 -7 9 C-5.44499019 5.18315774 -2.96404505 2.80804268 0 0 Z " fill="#69452B" transform="translate(35,99)"/>
<path d="M0 0 C-4.95 2.475 -4.95 2.475 -10 5 C-8 1 -8 1 -6.125 -0.3125 C-4 -1 -4 -1 0 0 Z " fill="#37352B" transform="translate(92,37)"/>
<path d="M0 0 C3.99455527 0.61454696 6.74466336 2.70646737 10 5 C9.34 5.66 8.68 6.32 8 7 C6.66382648 6.02471263 5.3311249 5.04466681 4 4.0625 C3.2575 3.51722656 2.515 2.97195312 1.75 2.41015625 C1.1725 1.94480469 0.595 1.47945312 0 1 C0 0.67 0 0.34 0 0 Z " fill="#41362B" transform="translate(283,36)"/>
<path d="M0 0 C3.67420866 0.30618405 4.78135513 0.75771784 7.3125 3.5625 C8.1478125 4.7690625 8.1478125 4.7690625 9 6 C4.64464931 4.83857315 2.35380297 3.92300495 0 0 Z " fill="#3F281B" transform="translate(61,261)"/>
<path d="M0 0 C0.66 0.33 1.32 0.66 2 1 C0.02 3.31 -1.96 5.62 -4 8 C-4.33 6.68 -4.66 5.36 -5 4 C-4.01 3.67 -3.02 3.34 -2 3 C-2 2.34 -2 1.68 -2 1 C-1.34 0.67 -0.68 0.34 0 0 Z " fill="#4A2F1A" transform="translate(299,206)"/>
<path d="M0 0 C2.56616632 3.84924948 2.55097676 6.4349304 3 11 C1.5 10 1.5 10 0 8 C-0.27345479 5.28153765 -0.13491285 2.74322801 0 0 Z " fill="#321A11" transform="translate(12,162)"/>
<path d="M0 0 C0.33 0.66 0.66 1.32 1 2 C0.67 2.99 0.34 3.98 0 5 C-2.64 4.67 -5.28 4.34 -8 4 C-8 3.67 -8 3.34 -8 3 C-6.865625 2.690625 -5.73125 2.38125 -4.5625 2.0625 C-1.21224901 1.37075469 -1.21224901 1.37075469 0 0 Z " fill="#6B4531" transform="translate(180,155)"/>
<path d="M0 0 C2.31 1.65 4.62 3.3 7 5 C5.68 5.33 4.36 5.66 3 6 C2.01 5.34 1.02 4.68 0 4 C0 2.68 0 1.36 0 0 Z " fill="#754F35" transform="translate(285,54)"/>
<path d="M0 0 C1.98 0 3.96 0 6 0 C2.79663178 2.83374881 0.21912747 3.5205537 -4 4 C-3.67 3.34 -3.34 2.68 -3 2 C-2.01 2 -1.02 2 0 2 C0 1.34 0 0.68 0 0 Z " fill="#523422" transform="translate(206,269)"/>
<path d="M0 0 C0.66 0 1.32 0 2 0 C1.34 2.97 0.68 5.94 0 9 C-0.33 9 -0.66 9 -1 9 C-1.09765625 2.84765625 -1.09765625 2.84765625 -1 1 C-0.67 0.67 -0.34 0.34 0 0 Z " fill="#53341D" transform="translate(315,172)"/>
<path d="M0 0 C-1.65 1.32 -3.3 2.64 -5 4 C-5.66 3.67 -6.32 3.34 -7 3 C-7 2.01 -7 1.02 -7 0 C-3.86650268 -1.04449911 -3.01031744 -0.93423645 0 0 Z " fill="#2D160B" transform="translate(77,61)"/>
<path d="M0 0 C5.875 3.75 5.875 3.75 7 6 C4.625 5.8125 4.625 5.8125 2 5 C0.6875 2.4375 0.6875 2.4375 0 0 Z " fill="#714C34" transform="translate(278,48)"/>
<path d="M0 0 C5.53846154 0.61538462 5.53846154 0.61538462 7.875 2.5625 C8.431875 3.2740625 8.431875 3.2740625 9 4 C7.35 4 5.7 4 4 4 C4 3.34 4 2.68 4 2 C2.68 1.34 1.36 0.68 0 0 Z " fill="#4B2E20" transform="translate(256,36)"/>
</svg>
